Coordinates
version=1
nRows=11
nColumns=40
inDegrees=yes

Units are S.I. units (second, meters, Newtons, ...)
If the header above contains a line with 'inDegrees', this indicates whether rotational values are in degrees (yes) or radians (no).

endheader
time	pelvis_tilt	pelvis_list	pelvis_rotation	pelvis_tx	pelvis_ty	pelvis_tz	hip_flexion_r	hip_adduction_r	hip_rotation_r	knee_angle_r	knee_angle_r_beta	ankle_angle_r	subtalar_angle_r	mtp_angle_r	hip_flexion_l	hip_adduction_l	hip_rotation_l	knee_angle_l	knee_angle_l_beta	ankle_angle_l	subtalar_angle_l	mtp_angle_l	lumbar_extension	lumbar_bending	lumbar_rotation	arm_flex_r	arm_add_r	arm_rot_r	elbow_flex_r	pro_sup_r	wrist_flex_r	wrist_dev_r	arm_flex_l	arm_add_l	arm_rot_l	elbow_flex_l	pro_sup_l	wrist_flex_l	wrist_dev_l
      0.44166667	    -10.89022549	      2.47607676	    -89.87638075	      0.14415496	      1.06489872	      0.06097805	     22.33477891	     10.37004153	     -2.44223836	     30.40652992	      0.53069406	     10.34212819	      0.00000000	      0.00000000	     60.45111238	      0.42132315	     14.15236278	     95.89327455	      1.67365337	      6.52098878	      0.00000000	      0.00000000	    -11.71447308	     17.45647582	     -3.08881407	     16.92436439	    -29.00367984	     36.36939004	    107.26978245	     83.64279994	      0.00000000	      0.00000000	     40.51968895	    -12.31535770	     66.95901324	     84.64692299	     43.95408797	      0.00000000	      0.00000000
      0.44444444	    -10.92617015	      2.11177319	    -89.88015319	      0.14513400	      1.06598074	      0.06157828	     21.70391201	     10.30671972	     -2.67236451	     30.06025497	      0.52465042	     10.23907397	      0.00000000	      0.00000000	     61.18431386	      1.17136400	     14.23720046	     96.21582388	      1.67928292	      6.28598956	      0.00000000	      0.00000000	    -12.05755811	     17.52639787	     -3.39510999	     17.14024985	    -29.21952539	     36.23135773	    107.53375865	     83.68954080	      0.00000000	      0.00000000	     40.84312915	    -12.43785344	     66.77935915	     84.82567394	     44.04560142	      0.00000000	      0.00000000
      0.44722222	    -10.85643145	      0.75942419	    -89.88389443	      0.14651894	      1.06927349	      0.06257492	     19.78827110	     10.14657780	     -2.81183355	     29.36211046	      0.51246550	     10.02329595	      0.00000000	      0.00000000	     60.67633697	      1.98075862	     14.20033374	     96.33445191	      1.68135337	      6.07866858	      0.00000000	      0.00000000	    -13.50737999	     17.48396219	     -3.71285379	     17.49059678	    -29.38876589	     36.05472315	    107.69998443	     83.94820752	      0.00000000	      0.00000000	     41.27766513	    -12.58150028	     66.56063969	     84.95704782	     44.45913457	      0.00000000	      0.00000000
      0.45000000	    -10.86006644	      0.48828022	    -89.88783347	      0.14748778	      1.07017038	      0.06309067	     19.29222454	     10.04590396	     -3.04368588	     29.07792319	      0.50750550	      9.95123129	      0.00000000	      0.00000000	     61.50504545	      2.73889516	     14.19611607	     96.58328707	      1.68569636	      5.94216788	      0.00000000	      0.00000000	    -13.74286624	     17.52245292	     -4.03538775	     17.69971254	    -29.61421749	     35.88533495	    107.98273413	     83.96904039	      0.00000000	      0.00000000	     41.61500047	    -12.73268322	     66.43396578	     85.15087996	     44.49481533	      0.00000000	      0.00000000
      0.45277778	    -10.84945444	      0.25940814	    -89.89014765	      0.14817199	      1.07090466	      0.06344842	     18.89524193	      9.97175767	     -3.16571296	     28.85655016	      0.50364181	      9.87477857	      0.00000000	      0.00000000	     61.99967535	      3.25267553	     14.16632743	     96.71381608	      1.68797452	      5.78224730	      0.00000000	      0.00000000	    -13.95985879	     17.53559056	     -4.24983279	     17.82691051	    -29.75111967	     35.76866213	    108.15720439	     83.99989495	      0.00000000	      0.00000000	     41.82294285	    -12.82769524	     66.30739665	     85.29197125	     44.51631387	      0.00000000	      0.00000000
      0.45555556	    -10.82685238	     -0.12293861	    -89.89393699	      0.14919268	      1.07211172	      0.06394842	     18.25071676	      9.85087240	     -3.37952578	     28.51152079	      0.49761991	      9.74522479	      0.00000000	      0.00000000	     62.67812703	      4.02125450	     14.09674302	     96.84123772	      1.69019845	      5.55293049	      0.00000000	      0.00000000	    -14.33376172	     17.54569983	     -4.55876736	     18.03801515	    -29.97747187	     35.55763038	    108.42257821	     84.04169466	      0.00000000	      0.00000000	     42.13805142	    -12.96944905	     66.07948474	     85.51228158	     44.57207778	      0.00000000	      0.00000000
      0.45833333	    -10.42570657	     -1.66294029	    -89.89704872	      0.15085086	      1.07585195	      0.06494848	     16.15182598	      9.32416025	     -3.47696630	     27.90174740	      0.48697736	      9.60557839	      0.00000000	      0.00000000	     61.88998400	      5.03435133	     13.67422272	     96.76951270	      1.68894661	      5.40887272	      0.00000000	      0.00000000	    -15.95446364	     17.15215633	     -4.96051867	     18.39625610	    -30.08609958	     35.36416781	    108.53017697	     84.30681512	      0.00000000	      0.00000000	     42.62561253	    -13.18566760	     65.91888949	     85.70202566	     44.62335543	      0.00000000	      0.00000000
      0.46111111	    -10.41922447	     -1.91115160	    -89.89939956	      0.15188040	      1.07678669	      0.06544008	     15.68973546	      9.21729142	     -3.67695917	     27.62482574	      0.48214416	      9.51417041	      0.00000000	      0.00000000	     62.72277010	      5.79835439	     13.58454446	     96.88276859	      1.69092330	      5.30909415	      0.00000000	      0.00000000	    -16.17089189	     17.18600832	     -5.25340103	     18.56195723	    -30.31519921	     35.16549581	    108.81079520	     84.32650799	      0.00000000	      0.00000000	     42.94865912	    -13.30884849	     65.73313054	     85.88562514	     44.66919213	      0.00000000	      0.00000000
      0.46388889	    -10.38752100	     -2.12116510	    -89.90156843	      0.15258171	      1.07752254	      0.06580652	     15.31594353	      9.11446270	     -3.81934250	     27.41213424	      0.47843200	      9.42413470	      0.00000000	      0.00000000	     63.21943715	      6.31372011	     13.48197863	     96.92062996	      1.69158411	      5.17635342	      0.00000000	      0.00000000	    -16.36531224	     17.18074022	     -5.47208496	     18.67677393	    -30.47224988	     34.99640755	    109.00122862	     84.33033057	      0.00000000	      0.00000000	     43.15288741	    -13.41968861	     65.60057375	     86.02190914	     44.69847760	      0.00000000	      0.00000000
      0.46666667	     -9.91816675	     -3.26041424	    -89.90496175	      0.15410512	      1.08046512	      0.06648402	     13.76864015	      8.50588418	     -3.94912540	     26.99522431	      0.47115555	      9.28594860	      0.00000000	      0.00000000	     62.93977043	      7.31432898	     12.91337176	     96.75415776	      1.68867862	      4.79584508	      0.00000000	      0.00000000	    -17.54753764	     16.71942052	     -5.87575156	     18.98552852	    -30.57262865	     34.78067376	    109.12975833	     84.52240363	      0.00000000	      0.00000000	     43.58979188	    -13.63120247	     65.40719876	     86.21892244	     44.73632131	      0.00000000	      0.00000000
      0.46944444	     -9.91944197	     -3.50199447	    -89.90866593	      0.15513013	      1.08141734	      0.06705694	     13.30688408	      8.41052867	     -4.15391621	     26.70977011	      0.46617343	      9.21990845	      0.00000000	      0.00000000	     63.77175995	      8.03490802	     12.76630869	     96.79372193	      1.68936914	      4.84470061	      0.00000000	      0.00000000	    -17.75468658	     16.75823695	     -6.16723966	     19.12941968	    -30.81925342	     34.57161901	    109.41009204	     84.53763809	      0.00000000	      0.00000000	     43.90350776	    -13.76137169	     65.24039938	     86.38970744	     44.77699160	      0.00000000	      0.00000000
